<?xml version="1.0" standalone="no"?><svg xmlns:xlink="http://www.w3.org/1999/xlink" xmlns="http://www.w3.org/2000/svg" viewBox="0 0 1000 521.7391304347826" preserveAspectRatio="xMaxYMax slice"><g transform="scale(0.5797101449275363)"><rect x="0" y="0" width="1725" height="900" fill="#ffffff"/><rect x="30" y="30" width="15" height="15" fill="#f9f9fa"/><g transform="translate(30,30) scale(0.75) rotate(0)"><rect width="20" height="10" fill="#f5f5f6"/></g><rect x="105" y="30" width="15" height="15" fill="#c2c5cc"/><g transform="translate(105,30) scale(0.75) rotate(0)"><rect width="20" height="10" fill="#ffffff"/></g><rect x="180" y="30" width="15" height="15" fill="#e9eaed"/><g transform="translate(180,30) scale(0.75) rotate(0)"><rect width="20" height="10" fill="#fcb7c3"/></g><rect x="255" y="30" width="15" height="15" fill="#f97990"/><rect x="255" y="30" width="15" height="15" fill="#f8617c"/><rect x="330" y="30" width="15" height="15" fill="#959ba6"/><g transform="translate(330,30) scale(0.75) rotate(0)"><rect width="20" height="10" fill="#fee8ec"/></g><rect x="405" y="30" width="15" height="15" fill="#b2b6bf"/><g transform="translate(405,30) scale(0.75) rotate(0)"><rect width="20" height="10" fill="#fefefe"/></g><rect x="480" y="30" width="15" height="15" fill="#f5f5f5"/><rect x="480" y="30" width="15" height="15" fill="#fa8da1"/><rect x="555" y="30" width="15" height="15" fill="#fafafa"/><rect x="555" y="30" width="15" height="15" fill="#fcb8c4"/><rect x="630" y="30" width="15" height="15" fill="#f6f6f6"/><rect x="630" y="30" width="15" height="15" fill="#f85572"/><rect x="705" y="30" width="15" height="15" fill="#fa95a8"/><g transform="translate(705,30) scale(0.75) rotate(0)"><rect width="20" height="10" fill="#f6f6f6"/></g><rect x="780" y="30" width="15" height="15" fill="#7f8694"/><g transform="translate(780,30) scale(0.75) rotate(0)"><rect width="20" height="10" fill="#fdfdfd"/></g><rect x="855" y="30" width="15" height="15" fill="#c0c3ca"/><rect x="855" y="30" width="15" height="15" fill="#f9f9f9"/><rect x="930" y="30" width="15" height="15" fill="#f0f0f2"/><rect x="930" y="30" width="15" height="15" fill="#7e8594"/><rect x="1005" y="30" width="15" height="15" fill="#898f9c"/><rect x="1005" y="30" width="15" height="15" fill="#fa8ca0"/><rect x="1080" y="30" width="15" height="15" fill="#feeff2"/><rect x="1080" y="30" width="15" height="15" fill="#f5f5f5"/><rect x="1155" y="30" width="15" height="15" fill="#f9f9f9"/><rect x="1155" y="30" width="15" height="15" fill="#555e71"/><rect x="1230" y="30" width="15" height="15" fill="#f74b6a"/><rect x="1230" y="30" width="15" height="15" fill="#fedfe5"/><rect x="1305" y="30" width="15" height="15" fill="#f6f6f6"/><rect x="1305" y="30" width="15" height="15" fill="#555e71"/><rect x="1380" y="30" width="15" height="15" fill="#feeff1"/><g transform="translate(1380,30) scale(0.75) rotate(0)"><rect width="20" height="10" fill="#fbfbfb"/></g><rect x="1455" y="30" width="15" height="15" fill="#959ba7"/><rect x="1455" y="30" width="15" height="15" fill="#fcb4c1"/><rect x="1530" y="30" width="15" height="15" fill="#fdcfd7"/><rect x="1530" y="30" width="15" height="15" fill="#fedee3"/><rect x="1605" y="30" width="15" height="15" fill="#f5f5f5"/><g transform="translate(1605,30) scale(0.75) rotate(0)"><rect width="20" height="10" fill="#f74d6c"/></g><rect x="1680" y="30" width="15" height="15" fill="#384258"/><g transform="translate(1680,30) scale(0.75) rotate(0)"><rect width="20" height="10" fill="#f3f3f3"/></g><rect x="27" y="102" width="21" height="21" fill="#808795"/><g transform="translate(27,102) scale(1.05) rotate(0)"><rect width="20" height="10" fill="#f74767"/></g><rect x="102" y="102" width="21" height="21" fill="#feebef"/><rect x="102" y="102" width="21" height="21" fill="#f8637e"/><rect x="177" y="102" width="21" height="21" fill="#fef0f3"/><g transform="translate(177,102) scale(1.05) rotate(0)"><rect width="20" height="10" fill="#f7f7f7"/></g><rect x="252" y="102" width="21" height="21" fill="#d6d8dd"/><g transform="translate(252,102) scale(1.05) rotate(0)"><rect width="20" height="10" fill="#4d576b"/></g><rect x="327" y="102" width="21" height="21" fill="#fba3b3"/><rect x="327" y="102" width="21" height="21" fill="#fa889c"/><rect x="402" y="102" width="21" height="21" fill="#fdced7"/><rect x="402" y="102" width="21" height="21" fill="#f96a84"/><rect x="477" y="102" width="21" height="21" fill="#747b8b"/><rect x="477" y="102" width="21" height="21" fill="#fdfdfd"/><rect x="552" y="102" width="21" height="21" fill="#f6f6f6"/><g transform="translate(552,102) scale(1.05) rotate(0)"><rect width="20" height="10" fill="#fbfbfb"/></g><rect x="627" y="102" width="21" height="21" fill="#f96d86"/><g transform="translate(627,102) scale(1.05) rotate(0)"><rect width="20" height="10" fill="#61697b"/></g><rect x="702" y="102" width="21" height="21" fill="#697282"/><rect x="702" y="102" width="21" height="21" fill="#f7f7f8"/><rect x="777" y="102" width="21" height="21" fill="#e0e2e5"/><g transform="translate(777,102) scale(1.05) rotate(0)"><rect width="20" height="10" fill="#fdc9d2"/></g><rect x="852" y="102" width="21" height="21" fill="#fa879c"/><rect x="852" y="102" width="21" height="21" fill="#f74a69"/><rect x="927" y="102" width="21" height="21" fill="#959aa6"/><rect x="927" y="102" width="21" height="21" fill="#fcb4c1"/><rect x="1002" y="102" width="21" height="21" fill="#f6f7f8"/><g transform="translate(1002,102) scale(1.05) rotate(0)"><rect width="20" height="10" fill="#ced1d6"/></g><rect x="1077" y="102" width="21" height="21" fill="#fbaab8"/><rect x="1077" y="102" width="21" height="21" fill="#b2b7bf"/><rect x="1152" y="102" width="21" height="21" fill="#f8657f"/><g transform="translate(1152,102) scale(1.05) rotate(0)"><rect width="20" height="10" fill="#d2d5da"/></g><rect x="1227" y="102" width="21" height="21" fill="#eaebee"/><rect x="1227" y="102" width="21" height="21" fill="#fafafa"/><rect x="1302" y="102" width="21" height="21" fill="#3b465c"/><rect x="1302" y="102" width="21" height="21" fill="#adb2bb"/><rect x="1377" y="102" width="21" height="21" fill="#f1f2f4"/><rect x="1377" y="102" width="21" height="21" fill="#9197a3"/><rect x="1452" y="102" width="21" height="21" fill="#838a97"/><rect x="1452" y="102" width="21" height="21" fill="#c4c7ce"/><rect x="1527" y="102" width="21" height="21" fill="#f9f9f9"/><g transform="translate(1527,102) scale(1.05) rotate(0)"><rect width="20" height="10" fill="#f85673"/></g><rect x="1602" y="102" width="21" height="21" fill="#3a455b"/><g transform="translate(1602,102) scale(1.05) rotate(0)"><rect width="20" height="10" fill="#fa93a5"/></g><rect x="1677" y="102" width="21" height="21" fill="#898f9c"/><g transform="translate(1677,102) scale(1.05) rotate(0)"><rect width="20" height="10" fill="#fafbfb"/></g><rect x="24" y="174" width="27" height="27" fill="#f5f5f5"/><rect x="24" y="174" width="27" height="27" fill="#f8f8f8"/><rect x="99" y="174" width="27" height="27" fill="#f9f9f9"/><rect x="99" y="174" width="27" height="27" fill="#fcb3c0"/><rect x="174" y="174" width="27" height="27" fill="#b9bdc4"/><g transform="translate(174,174) scale(1.35) rotate(0)"><rect width="20" height="10" fill="#cccfd4"/></g><rect x="249" y="174" width="27" height="27" fill="#fba3b3"/><rect x="249" y="174" width="27" height="27" fill="#fdd6dd"/><rect x="324" y="174" width="27" height="27" fill="#fa899d"/><rect x="324" y="174" width="27" height="27" fill="#f9778e"/><rect x="399" y="174" width="27" height="27" fill="#757c8c"/><g transform="translate(399,174) scale(1.35) rotate(0)"><rect width="20" height="10" fill="#f4f4f4"/></g><rect x="474" y="174" width="27" height="27" fill="#fdd1d9"/><g transform="translate(474,174) scale(1.35) rotate(0)"><rect width="20" height="10" fill="#fafafa"/></g><rect x="549" y="174" width="27" height="27" fill="#666e7f"/><rect x="549" y="174" width="27" height="27" fill="#fdc8d1"/><rect x="624" y="174" width="27" height="27" fill="#fdcfd7"/><g transform="translate(624,174) scale(1.35) rotate(0)"><rect width="20" height="10" fill="#6c7484"/></g><rect x="699" y="174" width="27" height="27" fill="#fee9ed"/><rect x="699" y="174" width="27" height="27" fill="#596274"/><rect x="774" y="174" width="27" height="27" fill="#fbfbfb"/><rect x="774" y="174" width="27" height="27" fill="#fa8fa2"/><rect x="849" y="174" width="27" height="27" fill="#f97d94"/><rect x="849" y="174" width="27" height="27" fill="#fcfcfc"/><rect x="924" y="174" width="27" height="27" fill="#fdfdfe"/><g transform="translate(924,174) scale(1.35) rotate(0)"><rect width="20" height="10" fill="#d8dbdf"/></g><rect x="999" y="174" width="27" height="27" fill="#9fa5af"/><rect x="999" y="174" width="27" height="27" fill="#f97089"/><rect x="1074" y="174" width="27" height="27" fill="#9ca2ac"/><g transform="translate(1074,174) scale(1.35) rotate(0)"><rect width="20" height="10" fill="#fee5ea"/></g><rect x="1149" y="174" width="27" height="27" fill="#3d475d"/><rect x="1149" y="174" width="27" height="27" fill="#dadce0"/><rect x="1224" y="174" width="27" height="27" fill="#fdfdfd"/><g transform="translate(1224,174) scale(1.35) rotate(0)"><rect width="20" height="10" fill="#3b465c"/></g><rect x="1299" y="174" width="27" height="27" fill="#e9ebed"/><g transform="translate(1299,174) scale(1.35) rotate(0)"><rect width="20" height="10" fill="#fb99aa"/></g><rect x="1374" y="174" width="27" height="27" fill="#fdfdfd"/><rect x="1374" y="174" width="27" height="27" fill="#ffffff"/><rect x="1449" y="174" width="27" height="27" fill="#fdfdfd"/><g transform="translate(1449,174) scale(1.35) rotate(0)"><rect width="20" height="10" fill="#f8f8f8"/></g><rect x="1524" y="174" width="27" height="27" fill="#fa95a7"/><rect x="1524" y="174" width="27" height="27" fill="#f8f8f8"/><rect x="1599" y="174" width="27" height="27" fill="#757d8c"/><rect x="1599" y="174" width="27" height="27" fill="#f8f8f8"/><rect x="1674" y="174" width="27" height="27" fill="#aeb3bc"/><g transform="translate(1674,174) scale(1.35) rotate(0)"><rect width="20" height="10" fill="#f8617c"/></g><rect x="21" y="246" width="33" height="33" fill="#c6c9cf"/><rect x="21" y="246" width="33" height="33" fill="#434e62"/><rect x="96" y="246" width="33" height="33" fill="#f3f3f5"/><rect x="96" y="246" width="33" height="33" fill="#f7f7f7"/><rect x="171" y="246" width="33" height="33" fill="#fbfbfb"/><rect x="171" y="246" width="33" height="33" fill="#656e7f"/><rect x="246" y="246" width="33" height="33" fill="#f2f3f4"/><g transform="translate(246,246) scale(1.65) rotate(0)"><rect width="20" height="10" fill="#fba5b4"/></g><rect x="321" y="246" width="33" height="33" fill="#fefefe"/><rect x="321" y="246" width="33" height="33" fill="#f85875"/><rect x="396" y="246" width="33" height="33" fill="#3a455b"/><g transform="translate(396,246) scale(1.65) rotate(0)"><rect width="20" height="10" fill="#fefefe"/></g><rect x="471" y="246" width="33" height="33" fill="#9ea3ae"/><g transform="translate(471,246) scale(1.65) rotate(0)"><rect width="20" height="10" fill="#c8cbd1"/></g><rect x="546" y="246" width="33" height="33" fill="#fcb0bd"/><g transform="translate(546,246) scale(1.65) rotate(0)"><rect width="20" height="10" fill="#b0b5bd"/></g><rect x="621" y="246" width="33" height="33" fill="#bbbec6"/><rect x="621" y="246" width="33" height="33" fill="#aaafb8"/><rect x="696" y="246" width="33" height="33" fill="#fba1b1"/><g transform="translate(696,246) scale(1.65) rotate(0)"><rect width="20" height="10" fill="#ffffff"/></g><rect x="771" y="246" width="33" height="33" fill="#fefefe"/><g transform="translate(771,246) scale(1.65) rotate(0)"><rect width="20" height="10" fill="#f5f5f5"/></g><rect x="846" y="246" width="33" height="33" fill="#f3f3f3"/><rect x="846" y="246" width="33" height="33" fill="#f5f5f5"/><rect x="921" y="246" width="33" height="33" fill="#f9f9f9"/><rect x="921" y="246" width="33" height="33" fill="#fa8196"/><rect x="996" y="246" width="33" height="33" fill="#fff5f7"/><rect x="996" y="246" width="33" height="33" fill="#fdc6cf"/><rect x="1071" y="246" width="33" height="33" fill="#f6f6f6"/><rect x="1071" y="246" width="33" height="33" fill="#cdd0d5"/><rect x="1146" y="246" width="33" height="33" fill="#868d9a"/><g transform="translate(1146,246) scale(1.65) rotate(0)"><rect width="20" height="10" fill="#f5f5f5"/></g><rect x="1221" y="246" width="33" height="33" fill="#fdfdfd"/><rect x="1221" y="246" width="33" height="33" fill="#f97d93"/><rect x="1296" y="246" width="33" height="33" fill="#ffffff"/><rect x="1296" y="246" width="33" height="33" fill="#9096a2"/><rect x="1371" y="246" width="33" height="33" fill="#d1d4d9"/><g transform="translate(1371,246) scale(1.65) rotate(0)"><rect width="20" height="10" fill="#fba4b3"/></g><rect x="1446" y="246" width="33" height="33" fill="#fdcad3"/><rect x="1446" y="246" width="33" height="33" fill="#5a6375"/><rect x="1521" y="246" width="33" height="33" fill="#6a7383"/><rect x="1521" y="246" width="33" height="33" fill="#878d9a"/><rect x="1596" y="246" width="33" height="33" fill="#fef3f5"/><g transform="translate(1596,246) scale(1.65) rotate(0)"><rect width="20" height="10" fill="#f8637d"/></g><rect x="1671" y="246" width="33" height="33" fill="#7d8492"/><g transform="translate(1671,246) scale(1.65) rotate(0)"><rect width="20" height="10" fill="#fb9bac"/></g><rect x="18" y="318" width="39" height="39" fill="#fdfdfd"/><rect x="18" y="318" width="39" height="39" fill="#8b919e"/><rect x="93" y="318" width="39" height="39" fill="#a9aeb7"/><rect x="93" y="318" width="39" height="39" fill="#fb9fb0"/><rect x="168" y="318" width="39" height="39" fill="#e3e5e8"/><rect x="168" y="318" width="39" height="39" fill="#fa91a3"/><rect x="243" y="318" width="39" height="39" fill="#d2d5da"/><g transform="translate(243,318) scale(1.95) rotate(0)"><rect width="20" height="10" fill="#fcfcfc"/></g><rect x="318" y="318" width="39" height="39" fill="#f7f7f7"/><rect x="318" y="318" width="39" height="39" fill="#fdc9d3"/><rect x="393" y="318" width="39" height="39" fill="#afb4bd"/><rect x="393" y="318" width="39" height="39" fill="#ebecee"/><rect x="468" y="318" width="39" height="39" fill="#f7f7f7"/><rect x="468" y="318" width="39" height="39" fill="#f6f6f6"/><rect x="543" y="318" width="39" height="39" fill="#485266"/><rect x="543" y="318" width="39" height="39" fill="#3f495e"/><rect x="618" y="318" width="39" height="39" fill="#f97189"/><g transform="translate(618,318) scale(1.95) rotate(0)"><rect width="20" height="10" fill="#eeeff1"/></g><rect x="693" y="318" width="39" height="39" fill="#f3f3f3"/><rect x="693" y="318" width="39" height="39" fill="#fff8f9"/><rect x="768" y="318" width="39" height="39" fill="#f7f7f7"/><rect x="768" y="318" width="39" height="39" fill="#f97990"/><rect x="843" y="318" width="39" height="39" fill="#6c7484"/><rect x="843" y="318" width="39" height="39" fill="#a0a5b0"/><rect x="918" y="318" width="39" height="39" fill="#fcc3cd"/><rect x="918" y="318" width="39" height="39" fill="#fcc2cd"/><rect x="993" y="318" width="39" height="39" fill="#656d7e"/><rect x="993" y="318" width="39" height="39" fill="#f6f6f6"/><rect x="1068" y="318" width="39" height="39" fill="#adb2bb"/><rect x="1068" y="318" width="39" height="39" fill="#e8e9ec"/><rect x="1143" y="318" width="39" height="39" fill="#f5f5f5"/><g transform="translate(1143,318) scale(1.95) rotate(0)"><rect width="20" height="10" fill="#fbfbfb"/></g><rect x="1218" y="318" width="39" height="39" fill="#fefefe"/><rect x="1218" y="318" width="39" height="39" fill="#acb1ba"/><rect x="1293" y="318" width="39" height="39" fill="#f5f6f7"/><rect x="1293" y="318" width="39" height="39" fill="#fcfcfc"/><rect x="1368" y="318" width="39" height="39" fill="#fb9bac"/><g transform="translate(1368,318) scale(1.95) rotate(0)"><rect width="20" height="10" fill="#fedee4"/></g><rect x="1443" y="318" width="39" height="39" fill="#fcc4cf"/><g transform="translate(1443,318) scale(1.95) rotate(0)"><rect width="20" height="10" fill="#f8f8f8"/></g><rect x="1518" y="318" width="39" height="39" fill="#fa8096"/><g transform="translate(1518,318) scale(1.95) rotate(0)"><rect width="20" height="10" fill="#8f95a1"/></g><rect x="1593" y="318" width="39" height="39" fill="#f7f7f7"/><rect x="1593" y="318" width="39" height="39" fill="#e2e4e7"/><rect x="1668" y="318" width="39" height="39" fill="#f5f5f5"/><g transform="translate(1668,318) scale(1.95) rotate(0)"><rect width="20" height="10" fill="#666f80"/></g><rect x="15" y="390" width="45" height="45" fill="#f8f8f8"/><rect x="15" y="390" width="45" height="45" fill="#fafafa"/><rect x="90" y="390" width="45" height="45" fill="#676f80"/><g transform="translate(90,390) scale(2.25) rotate(0)"><rect width="20" height="10" fill="#9399a5"/></g><rect x="165" y="390" width="45" height="45" fill="#f74b6a"/><g transform="translate(165,390) scale(2.25) rotate(0)"><rect width="20" height="10" fill="#c7cad0"/></g><rect x="240" y="390" width="45" height="45" fill="#fa889c"/><g transform="translate(240,390) scale(2.25) rotate(0)"><rect width="20" height="10" fill="#fbfbfb"/></g><rect x="315" y="390" width="45" height="45" fill="#fb99ab"/><g transform="translate(315,390) scale(2.25) rotate(0)"><rect width="20" height="10" fill="#f7f7f7"/></g><rect x="390" y="390" width="45" height="45" fill="#f3f3f3"/><rect x="390" y="390" width="45" height="45" fill="#fedfe4"/><rect x="465" y="390" width="45" height="45" fill="#f8f8f8"/><rect x="465" y="390" width="45" height="45" fill="#f6f6f6"/><rect x="540" y="390" width="45" height="45" fill="#f6f6f6"/><g transform="translate(540,390) scale(2.25) rotate(0)"><rect width="20" height="10" fill="#f7f7f8"/></g><rect x="615" y="390" width="45" height="45" fill="#697182"/><g transform="translate(615,390) scale(2.25) rotate(0)"><rect width="20" height="10" fill="#f9f9f9"/></g><rect x="690" y="390" width="45" height="45" fill="#3f495e"/><g transform="translate(690,390) scale(2.25) rotate(0)"><rect width="20" height="10" fill="#fb9dae"/></g><rect x="765" y="390" width="45" height="45" fill="#fcafbd"/><g transform="translate(765,390) scale(2.25) rotate(0)"><rect width="20" height="10" fill="#f4f4f4"/></g><rect x="840" y="390" width="45" height="45" fill="#f74565"/><rect x="840" y="390" width="45" height="45" fill="#ffffff"/><rect x="915" y="390" width="45" height="45" fill="#feeaee"/><g transform="translate(915,390) scale(2.25) rotate(0)"><rect width="20" height="10" fill="#d1d4d9"/></g><rect x="990" y="390" width="45" height="45" fill="#fbfbfb"/><rect x="990" y="390" width="45" height="45" fill="#f74a69"/><rect x="1065" y="390" width="45" height="45" fill="#f7f7f7"/><g transform="translate(1065,390) scale(2.25) rotate(0)"><rect width="20" height="10" fill="#9ca2ad"/></g><rect x="1140" y="390" width="45" height="45" fill="#fa7f95"/><rect x="1140" y="390" width="45" height="45" fill="#f9f9f9"/><rect x="1215" y="390" width="45" height="45" fill="#535c6f"/><rect x="1215" y="390" width="45" height="45" fill="#f3f4f5"/><rect x="1290" y="390" width="45" height="45" fill="#fcfcfc"/><g transform="translate(1290,390) scale(2.25) rotate(0)"><rect width="20" height="10" fill="#687081"/></g><rect x="1365" y="390" width="45" height="45" fill="#fff5f7"/><rect x="1365" y="390" width="45" height="45" fill="#fee4e9"/><rect x="1440" y="390" width="45" height="45" fill="#f8f8f8"/><rect x="1440" y="390" width="45" height="45" fill="#f8f8f9"/><rect x="1515" y="390" width="45" height="45" fill="#f5f5f6"/><g transform="translate(1515,390) scale(2.25) rotate(0)"><rect width="20" height="10" fill="#f4f4f4"/></g><rect x="1590" y="390" width="45" height="45" fill="#f5f6f7"/><g transform="translate(1590,390) scale(2.25) rotate(0)"><rect width="20" height="10" fill="#f3f3f3"/></g><rect x="1665" y="390" width="45" height="45" fill="#717989"/><rect x="1665" y="390" width="45" height="45" fill="#f5f5f5"/><rect x="12" y="462" width="51" height="51" fill="#dddfe2"/><g transform="translate(12,462) scale(2.55) rotate(0)"><rect width="20" height="10" fill="#7f8694"/></g><rect x="87" y="462" width="51" height="51" fill="#f8607b"/><g transform="translate(87,462) scale(2.55) rotate(0)"><rect width="20" height="10" fill="#fcfcfc"/></g><rect x="162" y="462" width="51" height="51" fill="#b8bcc4"/><g transform="translate(162,462) scale(2.55) rotate(0)"><rect width="20" height="10" fill="#f96b85"/></g><rect x="237" y="462" width="51" height="51" fill="#6b7384"/><g transform="translate(237,462) scale(2.55) rotate(0)"><rect width="20" height="10" fill="#fdfdfd"/></g><rect x="312" y="462" width="51" height="51" fill="#f8f8f8"/><rect x="312" y="462" width="51" height="51" fill="#fbacba"/><rect x="387" y="462" width="51" height="51" fill="#fa8399"/><g transform="translate(387,462) scale(2.55) rotate(0)"><rect width="20" height="10" fill="#f7f7f7"/></g><rect x="462" y="462" width="51" height="51" fill="#999faa"/><rect x="462" y="462" width="51" height="51" fill="#fb9eaf"/><rect x="537" y="462" width="51" height="51" fill="#fefefe"/><rect x="537" y="462" width="51" height="51" fill="#c1c5cb"/><rect x="612" y="462" width="51" height="51" fill="#f8f8f9"/><rect x="612" y="462" width="51" height="51" fill="#fdfdfd"/><rect x="687" y="462" width="51" height="51" fill="#f7f7f7"/><rect x="687" y="462" width="51" height="51" fill="#fbfbfb"/><rect x="762" y="462" width="51" height="51" fill="#fcb0be"/><rect x="762" y="462" width="51" height="51" fill="#f97b92"/><rect x="837" y="462" width="51" height="51" fill="#fdcfd7"/><rect x="837" y="462" width="51" height="51" fill="#a8adb7"/><rect x="912" y="462" width="51" height="51" fill="#fcbbc7"/><g transform="translate(912,462) scale(2.55) rotate(0)"><rect width="20" height="10" fill="#b9bdc5"/></g><rect x="987" y="462" width="51" height="51" fill="#4e586c"/><rect x="987" y="462" width="51" height="51" fill="#fbfbfb"/><rect x="1062" y="462" width="51" height="51" fill="#fb9dae"/><g transform="translate(1062,462) scale(2.55) rotate(0)"><rect width="20" height="10" fill="#747c8b"/></g><rect x="1137" y="462" width="51" height="51" fill="#a4a9b3"/><rect x="1137" y="462" width="51" height="51" fill="#727a8a"/><rect x="1212" y="462" width="51" height="51" fill="#fcfcfc"/><rect x="1212" y="462" width="51" height="51" fill="#f7f7f7"/><rect x="1287" y="462" width="51" height="51" fill="#f9f9f9"/><rect x="1287" y="462" width="51" height="51" fill="#fa8398"/><rect x="1362" y="462" width="51" height="51" fill="#f5f5f5"/><rect x="1362" y="462" width="51" height="51" fill="#fba1b1"/><rect x="1437" y="462" width="51" height="51" fill="#79818f"/><rect x="1437" y="462" width="51" height="51" fill="#f7f7f7"/><rect x="1512" y="462" width="51" height="51" fill="#f4f4f4"/><rect x="1512" y="462" width="51" height="51" fill="#fedee4"/><rect x="1587" y="462" width="51" height="51" fill="#f6f6f6"/><rect x="1587" y="462" width="51" height="51" fill="#4f586c"/><rect x="1662" y="462" width="51" height="51" fill="#fddce2"/><g transform="translate(1662,462) scale(2.55) rotate(0)"><rect width="20" height="10" fill="#a6abb5"/></g><rect x="9" y="534" width="57" height="57" fill="#f9f9f9"/><rect x="9" y="534" width="57" height="57" fill="#f9f9f9"/><rect x="84" y="534" width="57" height="57" fill="#bfc2c9"/><g transform="translate(84,534) scale(2.85) rotate(0)"><rect width="20" height="10" fill="#f7f7f7"/></g><rect x="159" y="534" width="57" height="57" fill="#adb1bb"/><g transform="translate(159,534) scale(2.85) rotate(0)"><rect width="20" height="10" fill="#f7f7f7"/></g><rect x="234" y="534" width="57" height="57" fill="#fff9fa"/><g transform="translate(234,534) scale(2.85) rotate(0)"><rect width="20" height="10" fill="#3e495e"/></g><rect x="309" y="534" width="57" height="57" fill="#f97189"/><rect x="309" y="534" width="57" height="57" fill="#6f7787"/><rect x="384" y="534" width="57" height="57" fill="#565f72"/><g transform="translate(384,534) scale(2.85) rotate(0)"><rect width="20" height="10" fill="#b2b6be"/></g><rect x="459" y="534" width="57" height="57" fill="#a1a6b0"/><g transform="translate(459,534) scale(2.85) rotate(0)"><rect width="20" height="10" fill="#ffffff"/></g><rect x="534" y="534" width="57" height="57" fill="#f6f6f6"/><g transform="translate(534,534) scale(2.85) rotate(0)"><rect width="20" height="10" fill="#5a6375"/></g><rect x="609" y="534" width="57" height="57" fill="#fafafa"/><rect x="609" y="534" width="57" height="57" fill="#6c7484"/><rect x="684" y="534" width="57" height="57" fill="#bdc1c8"/><rect x="684" y="534" width="57" height="57" fill="#9ca2ad"/><rect x="759" y="534" width="57" height="57" fill="#fefefe"/><g transform="translate(759,534) scale(2.85) rotate(0)"><rect width="20" height="10" fill="#bbbec6"/></g><rect x="834" y="534" width="57" height="57" fill="#f9768d"/><rect x="834" y="534" width="57" height="57" fill="#fbfbfb"/><rect x="909" y="534" width="57" height="57" fill="#eff0f2"/><g transform="translate(909,534) scale(2.85) rotate(0)"><rect width="20" height="10" fill="#dfe1e4"/></g><rect x="984" y="534" width="57" height="57" fill="#555e71"/><rect x="984" y="534" width="57" height="57" fill="#a1a6b1"/><rect x="1059" y="534" width="57" height="57" fill="#fdd8de"/><rect x="1059" y="534" width="57" height="57" fill="#fefefe"/><rect x="1134" y="534" width="57" height="57" fill="#f9748c"/><rect x="1134" y="534" width="57" height="57" fill="#c1c4cb"/><rect x="1209" y="534" width="57" height="57" fill="#fbfbfb"/><rect x="1209" y="534" width="57" height="57" fill="#fee5e9"/><rect x="1284" y="534" width="57" height="57" fill="#f6f6f7"/><rect x="1284" y="534" width="57" height="57" fill="#969ca7"/><rect x="1359" y="534" width="57" height="57" fill="#f9788f"/><g transform="translate(1359,534) scale(2.85) rotate(0)"><rect width="20" height="10" fill="#fcb3c0"/></g><rect x="1434" y="534" width="57" height="57" fill="#5f6879"/><g transform="translate(1434,534) scale(2.85) rotate(0)"><rect width="20" height="10" fill="#566072"/></g><rect x="1509" y="534" width="57" height="57" fill="#fdd3db"/><g transform="translate(1509,534) scale(2.85) rotate(0)"><rect width="20" height="10" fill="#fdcbd4"/></g><rect x="1584" y="534" width="57" height="57" fill="#f8637e"/><rect x="1584" y="534" width="57" height="57" fill="#fefefe"/><rect x="1659" y="534" width="57" height="57" fill="#fa899d"/><rect x="1659" y="534" width="57" height="57" fill="#fcbec9"/><rect x="6" y="606" width="63" height="63" fill="#fcfcfc"/><rect x="6" y="606" width="63" height="63" fill="#fdfdfd"/><rect x="81" y="606" width="63" height="63" fill="#fdfdfd"/><g transform="translate(81,606) scale(3.15) rotate(0)"><rect width="20" height="10" fill="#fcb7c3"/></g><rect x="156" y="606" width="63" height="63" fill="#fdd8df"/><rect x="156" y="606" width="63" height="63" fill="#808795"/><rect x="231" y="606" width="63" height="63" fill="#f85774"/><g transform="translate(231,606) scale(3.15) rotate(0)"><rect width="20" height="10" fill="#c9ccd2"/></g><rect x="306" y="606" width="63" height="63" fill="#f8607b"/><rect x="306" y="606" width="63" height="63" fill="#fdfdfd"/><rect x="381" y="606" width="63" height="63" fill="#b1b6be"/><g transform="translate(381,606) scale(3.15) rotate(0)"><rect width="20" height="10" fill="#f85b77"/></g><rect x="456" y="606" width="63" height="63" fill="#fffbfc"/><rect x="456" y="606" width="63" height="63" fill="#fb9eae"/><rect x="531" y="606" width="63" height="63" fill="#3b465b"/><rect x="531" y="606" width="63" height="63" fill="#656e7f"/><rect x="606" y="606" width="63" height="63" fill="#9a9faa"/><g transform="translate(606,606) scale(3.15) rotate(0)"><rect width="20" height="10" fill="#e5e7ea"/></g><rect x="681" y="606" width="63" height="63" fill="#6a7283"/><g transform="translate(681,606) scale(3.15) rotate(0)"><rect width="20" height="10" fill="#fdd5dc"/></g><rect x="756" y="606" width="63" height="63" fill="#fefefe"/><g transform="translate(756,606) scale(3.15) rotate(0)"><rect width="20" height="10" fill="#fa879b"/></g><rect x="831" y="606" width="63" height="63" fill="#f3f3f3"/><rect x="831" y="606" width="63" height="63" fill="#f5f5f5"/><rect x="906" y="606" width="63" height="63" fill="#f74b6a"/><rect x="906" y="606" width="63" height="63" fill="#f74f6d"/><rect x="981" y="606" width="63" height="63" fill="#5d6678"/><rect x="981" y="606" width="63" height="63" fill="#f6f6f6"/><rect x="1056" y="606" width="63" height="63" fill="#fdfdfd"/><rect x="1056" y="606" width="63" height="63" fill="#fff6f8"/><rect x="1131" y="606" width="63" height="63" fill="#cdd0d6"/><rect x="1131" y="606" width="63" height="63" fill="#fdfdfd"/><rect x="1206" y="606" width="63" height="63" fill="#a7acb5"/><g transform="translate(1206,606) scale(3.15) rotate(0)"><rect width="20" height="10" fill="#fa7f95"/></g><rect x="1281" y="606" width="63" height="63" fill="#fefefe"/><rect x="1281" y="606" width="63" height="63" fill="#fcfcfc"/><rect x="1356" y="606" width="63" height="63" fill="#feebee"/><g transform="translate(1356,606) scale(3.15) rotate(0)"><rect width="20" height="10" fill="#f3f3f3"/></g><rect x="1431" y="606" width="63" height="63" fill="#ffffff"/><g transform="translate(1431,606) scale(3.15) rotate(0)"><rect width="20" height="10" fill="#9399a5"/></g><rect x="1506" y="606" width="63" height="63" fill="#f6f6f6"/><g transform="translate(1506,606) scale(3.15) rotate(0)"><rect width="20" height="10" fill="#f9f9f9"/></g><rect x="1581" y="606" width="63" height="63" fill="#4f596c"/><rect x="1581" y="606" width="63" height="63" fill="#f8f9f9"/><rect x="1656" y="606" width="63" height="63" fill="#f3f3f3"/><g transform="translate(1656,606) scale(3.15) rotate(0)"><rect width="20" height="10" fill="#fcfcfc"/></g><rect x="3" y="678" width="69" height="69" fill="#fdfdfd"/><rect x="3" y="678" width="69" height="69" fill="#fa90a3"/><rect x="78" y="678" width="69" height="69" fill="#fa91a4"/><g transform="translate(78,678) scale(3.45) rotate(0)"><rect width="20" height="10" fill="#f3f3f3"/></g><rect x="153" y="678" width="69" height="69" fill="#fa90a3"/><rect x="153" y="678" width="69" height="69" fill="#999eaa"/><rect x="228" y="678" width="69" height="69" fill="#c7cad0"/><g transform="translate(228,678) scale(3.45) rotate(0)"><rect width="20" height="10" fill="#f9f9f9"/></g><rect x="303" y="678" width="69" height="69" fill="#d7d9dd"/><rect x="303" y="678" width="69" height="69" fill="#f8f8f8"/><rect x="378" y="678" width="69" height="69" fill="#f74c6a"/><rect x="378" y="678" width="69" height="69" fill="#dddfe3"/><rect x="453" y="678" width="69" height="69" fill="#949aa6"/><g transform="translate(453,678) scale(3.45) rotate(0)"><rect width="20" height="10" fill="#fefefe"/></g><rect x="528" y="678" width="69" height="69" fill="#e4e5e8"/><rect x="528" y="678" width="69" height="69" fill="#f97a91"/><rect x="603" y="678" width="69" height="69" fill="#f9748c"/><rect x="603" y="678" width="69" height="69" fill="#fba7b6"/><rect x="678" y="678" width="69" height="69" fill="#fddae1"/><g transform="translate(678,678) scale(3.45) rotate(0)"><rect width="20" height="10" fill="#f6f7f8"/></g><rect x="753" y="678" width="69" height="69" fill="#f8f8f9"/><rect x="753" y="678" width="69" height="69" fill="#fafafa"/><rect x="828" y="678" width="69" height="69" fill="#9097a3"/><g transform="translate(828,678) scale(3.45) rotate(0)"><rect width="20" height="10" fill="#3b465c"/></g><rect x="903" y="678" width="69" height="69" fill="#fdd3db"/><rect x="903" y="678" width="69" height="69" fill="#9399a5"/><rect x="978" y="678" width="69" height="69" fill="#f9f9f9"/><rect x="978" y="678" width="69" height="69" fill="#fcc2cc"/><rect x="1053" y="678" width="69" height="69" fill="#969ca8"/><rect x="1053" y="678" width="69" height="69" fill="#fafafa"/><rect x="1128" y="678" width="69" height="69" fill="#878d9b"/><rect x="1128" y="678" width="69" height="69" fill="#717989"/><rect x="1203" y="678" width="69" height="69" fill="#fa8a9e"/><g transform="translate(1203,678) scale(3.45) rotate(0)"><rect width="20" height="10" fill="#fafafa"/></g><rect x="1278" y="678" width="69" height="69" fill="#f85673"/><rect x="1278" y="678" width="69" height="69" fill="#fdc6d0"/><rect x="1353" y="678" width="69" height="69" fill="#616a7b"/><rect x="1353" y="678" width="69" height="69" fill="#fcc0cb"/><rect x="1428" y="678" width="69" height="69" fill="#fdfdfd"/><g transform="translate(1428,678) scale(3.45) rotate(0)"><rect width="20" height="10" fill="#fa8a9e"/></g><rect x="1503" y="678" width="69" height="69" fill="#f96b85"/><rect x="1503" y="678" width="69" height="69" fill="#f97e94"/><rect x="1578" y="678" width="69" height="69" fill="#f4f4f4"/><g transform="translate(1578,678) scale(3.45) rotate(0)"><rect width="20" height="10" fill="#f8f8f8"/></g><rect x="1653" y="678" width="69" height="69" fill="#8b929e"/><g transform="translate(1653,678) scale(3.45) rotate(0)"><rect width="20" height="10" fill="#454f64"/></g><rect x="0" y="750" width="75" height="75" fill="#fdccd4"/><g transform="translate(0,750) scale(3.75) rotate(0)"><rect width="20" height="10" fill="#fee0e5"/></g><rect x="75" y="750" width="75" height="75" fill="#fafbfb"/><rect x="75" y="750" width="75" height="75" fill="#868d9a"/><rect x="150" y="750" width="75" height="75" fill="#fafafa"/><rect x="150" y="750" width="75" height="75" fill="#fcb7c3"/><rect x="225" y="750" width="75" height="75" fill="#fafafa"/><rect x="225" y="750" width="75" height="75" fill="#edeef0"/><rect x="300" y="750" width="75" height="75" fill="#f85371"/><g transform="translate(300,750) scale(3.75) rotate(0)"><rect width="20" height="10" fill="#fcfcfc"/></g><rect x="375" y="750" width="75" height="75" fill="#feeef1"/><g transform="translate(375,750) scale(3.75) rotate(0)"><rect width="20" height="10" fill="#f7f7f7"/></g><rect x="450" y="750" width="75" height="75" fill="#fa95a7"/><g transform="translate(450,750) scale(3.75) rotate(0)"><rect width="20" height="10" fill="#fee0e6"/></g><rect x="525" y="750" width="75" height="75" fill="#f4f4f4"/><rect x="525" y="750" width="75" height="75" fill="#fdfdfd"/><rect x="600" y="750" width="75" height="75" fill="#b3b7c0"/><rect x="600" y="750" width="75" height="75" fill="#fefefe"/><rect x="675" y="750" width="75" height="75" fill="#6a7282"/><rect x="675" y="750" width="75" height="75" fill="#9fa5af"/><rect x="750" y="750" width="75" height="75" fill="#f86580"/><rect x="750" y="750" width="75" height="75" fill="#5d6678"/><rect x="825" y="750" width="75" height="75" fill="#a9adb7"/><g transform="translate(825,750) scale(3.75) rotate(0)"><rect width="20" height="10" fill="#717988"/></g><rect x="900" y="750" width="75" height="75" fill="#f4f4f4"/><g transform="translate(900,750) scale(3.75) rotate(0)"><rect width="20" height="10" fill="#fa8ea1"/></g><rect x="975" y="750" width="75" height="75" fill="#dbdde1"/><g transform="translate(975,750) scale(3.75) rotate(0)"><rect width="20" height="10" fill="#f8f8f8"/></g><rect x="1050" y="750" width="75" height="75" fill="#f5f5f5"/><rect x="1050" y="750" width="75" height="75" fill="#f4f4f4"/><rect x="1125" y="750" width="75" height="75" fill="#535d6f"/><g transform="translate(1125,750) scale(3.75) rotate(0)"><rect width="20" height="10" fill="#f6f6f6"/></g><rect x="1200" y="750" width="75" height="75" fill="#e1e3e6"/><rect x="1200" y="750" width="75" height="75" fill="#fafafa"/><rect x="1275" y="750" width="75" height="75" fill="#f5f5f5"/><rect x="1275" y="750" width="75" height="75" fill="#fdc8d1"/><rect x="1350" y="750" width="75" height="75" fill="#f5f6f7"/><g transform="translate(1350,750) scale(3.75) rotate(0)"><rect width="20" height="10" fill="#fcafbd"/></g><rect x="1425" y="750" width="75" height="75" fill="#fa93a6"/><g transform="translate(1425,750) scale(3.75) rotate(0)"><rect width="20" height="10" fill="#f97c93"/></g><rect x="1500" y="750" width="75" height="75" fill="#505a6d"/><g transform="translate(1500,750) scale(3.75) rotate(0)"><rect width="20" height="10" fill="#fdcfd7"/></g><rect x="1575" y="750" width="75" height="75" fill="#d4d7db"/><rect x="1575" y="750" width="75" height="75" fill="#f85875"/><rect x="1650" y="750" width="75" height="75" fill="#f6f6f6"/><g transform="translate(1650,750) scale(3.75) rotate(0)"><rect width="20" height="10" fill="#f3f3f3"/></g><rect x="0" y="825" width="75" height="75" fill="#f8637e"/><g transform="translate(0,825) scale(3.75) rotate(0)"><rect width="20" height="10" fill="#7e8694"/></g><rect x="75" y="825" width="75" height="75" fill="#707888"/><g transform="translate(75,825) scale(3.75) rotate(0)"><rect width="20" height="10" fill="#fcb8c4"/></g><rect x="150" y="825" width="75" height="75" fill="#fefefe"/><rect x="150" y="825" width="75" height="75" fill="#fedde3"/><rect x="225" y="825" width="75" height="75" fill="#fff6f7"/><g transform="translate(225,825) scale(3.75) rotate(0)"><rect width="20" height="10" fill="#f7f7f7"/></g><rect x="300" y="825" width="75" height="75" fill="#f2f3f4"/><g transform="translate(300,825) scale(3.75) rotate(0)"><rect width="20" height="10" fill="#fafafa"/></g><rect x="375" y="825" width="75" height="75" fill="#999faa"/><g transform="translate(375,825) scale(3.75) rotate(0)"><rect width="20" height="10" fill="#f4f4f4"/></g><rect x="450" y="825" width="75" height="75" fill="#f85572"/><rect x="450" y="825" width="75" height="75" fill="#f3f3f3"/><rect x="525" y="825" width="75" height="75" fill="#fbfbfb"/><g transform="translate(525,825) scale(3.75) rotate(0)"><rect width="20" height="10" fill="#f5f5f5"/></g><rect x="600" y="825" width="75" height="75" fill="#fafafb"/><rect x="600" y="825" width="75" height="75" fill="#fdd6dd"/><rect x="675" y="825" width="75" height="75" fill="#656d7e"/><rect x="675" y="825" width="75" height="75" fill="#fdd4db"/><rect x="750" y="825" width="75" height="75" fill="#f8f8f8"/><g transform="translate(750,825) scale(3.75) rotate(0)"><rect width="20" height="10" fill="#fcb9c5"/></g><rect x="825" y="825" width="75" height="75" fill="#fff4f6"/><rect x="825" y="825" width="75" height="75" fill="#475165"/><rect x="900" y="825" width="75" height="75" fill="#e2e4e7"/><g transform="translate(900,825) scale(3.75) rotate(0)"><rect width="20" height="10" fill="#8a919e"/></g><rect x="975" y="825" width="75" height="75" fill="#f9748b"/><g transform="translate(975,825) scale(3.75) rotate(0)"><rect width="20" height="10" fill="#fba9b8"/></g><rect x="1050" y="825" width="75" height="75" fill="#565f72"/><rect x="1050" y="825" width="75" height="75" fill="#f8f8f8"/><rect x="1125" y="825" width="75" height="75" fill="#475166"/><g transform="translate(1125,825) scale(3.75) rotate(0)"><rect width="20" height="10" fill="#5a6375"/></g><rect x="1200" y="825" width="75" height="75" fill="#f8607b"/><g transform="translate(1200,825) scale(3.75) rotate(0)"><rect width="20" height="10" fill="#4a5468"/></g><rect x="1275" y="825" width="75" height="75" fill="#7f8695"/><g transform="translate(1275,825) scale(3.75) rotate(0)"><rect width="20" height="10" fill="#b6bac2"/></g><rect x="1350" y="825" width="75" height="75" fill="#f5f5f5"/><g transform="translate(1350,825) scale(3.75) rotate(0)"><rect width="20" height="10" fill="#feeef1"/></g><rect x="1425" y="825" width="75" height="75" fill="#fefefe"/><g transform="translate(1425,825) scale(3.75) rotate(0)"><rect width="20" height="10" fill="#fa8196"/></g><rect x="1500" y="825" width="75" height="75" fill="#f5f5f5"/><rect x="1500" y="825" width="75" height="75" fill="#dcdee2"/><rect x="1575" y="825" width="75" height="75" fill="#fcbdc9"/><g transform="translate(1575,825) scale(3.75) rotate(0)"><rect width="20" height="10" fill="#fcfcfc"/></g><rect x="1650" y="825" width="75" height="75" fill="#adb1ba"/><g transform="translate(1650,825) scale(3.75) rotate(0)"><rect width="20" height="10" fill="#fefefe"/></g></g></svg>